<svg width="42" height="24" viewBox="0 0 42 24" fill="none" xmlns="http://www.w3.org/2000/svg">
<path d="M9.16494 14.832C9.16494 15.3653 9.0316 15.8667 8.76494 16.336C8.50894 16.8053 8.12494 17.2 7.61294 17.52C7.1116 17.84 6.51427 18.032 5.82094 18.096V19.392H4.78094V18.096C3.77827 18 2.9676 17.6853 2.34894 17.152C1.73027 16.6187 1.42094 15.9147 1.42094 15.04H3.37294C3.40494 15.456 3.53827 15.8027 3.77294 16.08C4.0076 16.3467 4.3436 16.5173 4.78094 16.592V13.072C4.06627 12.8907 3.48494 12.7093 3.03694 12.528C2.58894 12.336 2.20494 12.0373 1.88494 11.632C1.5756 11.2267 1.42094 10.672 1.42094 9.968C1.42094 9.08267 1.73027 8.352 2.34894 7.776C2.9676 7.18933 3.77827 6.848 4.78094 6.752V5.456H5.82094V6.752C6.7596 6.83733 7.5116 7.136 8.07694 7.648C8.65294 8.14933 8.97827 8.84267 9.05294 9.728H7.10094C7.06894 9.39733 6.94094 9.104 6.71694 8.848C6.49294 8.58133 6.19427 8.4 5.82094 8.304V11.76C6.5356 11.9307 7.11694 12.112 7.56494 12.304C8.01294 12.4853 8.3916 12.7787 8.70094 13.184C9.01027 13.5787 9.16494 14.128 9.16494 14.832ZM3.27694 9.872C3.27694 10.3093 3.40494 10.6507 3.66094 10.896C3.9276 11.1413 4.30094 11.3387 4.78094 11.488V8.256C4.32227 8.30933 3.95427 8.47467 3.67694 8.752C3.41027 9.02933 3.27694 9.40267 3.27694 9.872ZM5.82094 16.592C6.29027 16.5173 6.65827 16.3307 6.92494 16.032C7.1916 15.7227 7.32494 15.3547 7.32494 14.928C7.32494 14.5013 7.1916 14.1707 6.92494 13.936C6.66894 13.6907 6.30094 13.4933 5.82094 13.344V16.592ZM13.7952 11.904C12.6859 11.3493 12.1312 10.4747 12.1312 9.28C12.1312 8.704 12.2752 8.176 12.5632 7.696C12.8512 7.216 13.2832 6.83733 13.8592 6.56C14.4352 6.272 15.1392 6.128 15.9712 6.128C16.7925 6.128 17.4912 6.272 18.0672 6.56C18.6539 6.83733 19.0912 7.216 19.3792 7.696C19.6672 8.176 19.8112 8.704 19.8112 9.28C19.8112 9.87733 19.6565 10.4053 19.3472 10.864C19.0485 11.312 18.6485 11.6587 18.1472 11.904C18.7552 12.128 19.2352 12.496 19.5872 13.008C19.9392 13.5093 20.1152 14.1013 20.1152 14.784C20.1152 15.4773 19.9392 16.0907 19.5872 16.624C19.2352 17.1573 18.7445 17.568 18.1152 17.856C17.4859 18.144 16.7712 18.288 15.9712 18.288C15.1712 18.288 14.4565 18.144 13.8272 17.856C13.2085 17.568 12.7232 17.1573 12.3712 16.624C12.0192 16.0907 11.8432 15.4773 11.8432 14.784C11.8432 14.0907 12.0192 13.4933 12.3712 12.992C12.7232 12.4907 13.1979 12.128 13.7952 11.904ZM18.0672 9.504C18.0672 8.90667 17.8805 8.448 17.5072 8.128C17.1339 7.808 16.6219 7.648 15.9712 7.648C15.3312 7.648 14.8245 7.808 14.4512 8.128C14.0779 8.448 13.8912 8.912 13.8912 9.52C13.8912 10.0533 14.0832 10.4907 14.4672 10.832C14.8619 11.1627 15.3632 11.328 15.9712 11.328C16.5792 11.328 17.0805 11.1573 17.4752 10.816C17.8699 10.4747 18.0672 10.0373 18.0672 9.504ZM15.9712 12.704C15.2672 12.704 14.6912 12.88 14.2432 13.232C13.8059 13.5733 13.5872 14.0693 13.5872 14.72C13.5872 15.328 13.8005 15.824 14.2272 16.208C14.6539 16.5813 15.2352 16.768 15.9712 16.768C16.6965 16.768 17.2672 16.576 17.6832 16.192C18.1099 15.808 18.3232 15.3173 18.3232 14.72C18.3232 14.08 18.1045 13.584 17.6672 13.232C17.2405 12.88 16.6752 12.704 15.9712 12.704ZM29.5503 7.904H24.1903V11.088C24.4143 10.7893 24.745 10.5387 25.1823 10.336C25.6303 10.1333 26.105 10.032 26.6063 10.032C27.5023 10.032 28.2276 10.224 28.7823 10.608C29.3476 10.992 29.7476 11.4773 29.9823 12.064C30.2276 12.6507 30.3503 13.2693 30.3503 13.92C30.3503 14.7093 30.1956 15.4133 29.8863 16.032C29.5876 16.64 29.1343 17.12 28.5263 17.472C27.929 17.824 27.193 18 26.3183 18C25.1556 18 24.2223 17.712 23.5183 17.136C22.8143 16.56 22.393 15.7973 22.2543 14.848H24.0303C24.1476 15.3493 24.409 15.7493 24.8143 16.048C25.2196 16.336 25.7263 16.48 26.3343 16.48C27.0916 16.48 27.657 16.2507 28.0303 15.792C28.4143 15.3333 28.6063 14.7253 28.6063 13.968C28.6063 13.2 28.4143 12.6133 28.0303 12.208C27.6463 11.792 27.081 11.584 26.3343 11.584C25.8116 11.584 25.369 11.7173 25.0063 11.984C24.6543 12.24 24.3983 12.592 24.2383 13.04H22.5103V6.304H29.5503V7.904ZM32.2491 12.016C32.2491 10.1707 32.5584 8.73067 33.1771 7.696C33.8064 6.65067 34.8837 6.128 36.4091 6.128C37.9344 6.128 39.0064 6.65067 39.6251 7.696C40.2544 8.73067 40.5691 10.1707 40.5691 12.016C40.5691 13.8827 40.2544 15.344 39.6251 16.4C39.0064 17.4453 37.9344 17.968 36.4091 17.968C34.8837 17.968 33.8064 17.4453 33.1771 16.4C32.5584 15.344 32.2491 13.8827 32.2491 12.016ZM38.7771 12.016C38.7771 11.152 38.7184 10.4213 38.6011 9.824C38.4944 9.22667 38.2704 8.74133 37.9291 8.368C37.5877 7.984 37.0811 7.792 36.4091 7.792C35.7371 7.792 35.2304 7.984 34.8891 8.368C34.5477 8.74133 34.3184 9.22667 34.2011 9.824C34.0944 10.4213 34.0411 11.152 34.0411 12.016C34.0411 12.912 34.0944 13.664 34.2011 14.272C34.3077 14.88 34.5317 15.3707 34.8731 15.744C35.2251 16.1173 35.7371 16.304 36.4091 16.304C37.0811 16.304 37.5877 16.1173 37.9291 15.744C38.2811 15.3707 38.5104 14.88 38.6171 14.272C38.7237 13.664 38.7771 12.912 38.7771 12.016Z" fill="#666666"/>
<line x1="3" y1="11.5" x2="42" y2="11.5" stroke="#666666"/>
</svg>
